<?xml version="1.0" encoding="utf-8"?>
<!-- Generator: Adobe Illustrator 18.1.1, SVG Export Plug-In . SVG Version: 6.00 Build 0)  -->
<svg version="1.1" xmlns="http://www.w3.org/2000/svg" xmlns:xlink="http://www.w3.org/1999/xlink" x="0px" y="0px"
	 viewBox="0 0 40 40" enable-background="new 0 0 40 40" xml:space="preserve">
<g id="Layer_1">
	<g>
		<g>
				<rect x="8.426" y="23.738" fill="none" stroke="#000000" stroke-width="2" stroke-linecap="round" stroke-linejoin="round" stroke-miterlimit="10" width="9.385" height="7.869"/>
			
				<line fill="none" stroke="#000000" stroke-width="2" stroke-linecap="round" stroke-linejoin="round" stroke-miterlimit="10" x1="22.045" y1="27.672" x2="31.32" y2="27.672"/>
			
				<line fill="none" stroke="#000000" stroke-width="2" stroke-linecap="round" stroke-linejoin="round" stroke-miterlimit="10" x1="22.045" y1="23.738" x2="31.32" y2="23.738"/>
			<path fill="none" stroke="#000000" stroke-width="2" stroke-linecap="round" stroke-linejoin="round" stroke-miterlimit="10" d="
				M10.225,19.664c-1.769,0-2.33-1.146-1.244-2.544l5.287-6.727c1.086-1.399,2.883-1.416,3.996-0.037l1.877,2.33
				c1.111,1.38,2.164,2.507,3.877,0.996c1.283-1.131,2.904-0.51,4.185,0.71l2.621,3.051c1.283,1.221,0.881,2.221-0.889,2.221H10.225
				z"/>
			<path fill="none" stroke="#000000" stroke-width="2" stroke-linecap="round" stroke-linejoin="round" stroke-miterlimit="10" d="
				M24.057,12.564c-0.725-1.451-0.146-3.215,1.305-3.945c1.449-0.729,3.217-0.149,3.945,1.301c0.729,1.449,0.146,3.216-1.301,3.943"
				/>
		</g>
		<path fill="none" stroke="#000000" stroke-width="2" stroke-linecap="round" stroke-linejoin="round" stroke-miterlimit="10" d="
			M35.408,32.481c0,1.618-1.312,2.926-2.926,2.926H7.519c-1.617,0-2.928-1.308-2.928-2.926V7.519c0-1.615,1.31-2.926,2.928-2.926
			h24.963c1.613,0,2.926,1.311,2.926,2.926V32.481z"/>
	</g>
</g>
<g id="labels" display="none">
</g>
</svg>
