<?xml version="1.0" encoding="utf-8"?>
<!-- Generator: Adobe Illustrator 18.1.1, SVG Export Plug-In . SVG Version: 6.00 Build 0)  -->
<svg version="1.1" xmlns="http://www.w3.org/2000/svg" xmlns:xlink="http://www.w3.org/1999/xlink" x="0px" y="0px"
	 viewBox="0 0 40 40" enable-background="new 0 0 40 40" xml:space="preserve">
<g id="Layer_1">
	<g>
		<g>
			<path fill="none" stroke="#000000" stroke-width="2" stroke-linecap="round" stroke-linejoin="round" stroke-miterlimit="10" d="
				M32.409,5.322C31.853,4.746,31.073,4.38,30.2,4.38c-1.693,0-3.071,1.376-3.071,3.078c0,0.216,0.019,0.433,0.066,0.637
				c-4.59-0.277-6.391-3.124-6.391-3.124c-2.477,5.712,3.295,9.031,3.295,9.031s-1.542,1.739-4.486,1.341c0,0,6.31,3.8,10.973-1
				c2.735-2.816,3.025-5.259,2.761-6.851c0.771-0.465,1.469-2.322,1.469-2.322L32.409,5.322z"/>
		</g>
		<path fill="none" stroke="#000000" stroke-width="2" stroke-linecap="round" stroke-linejoin="round" stroke-miterlimit="10" d="
			M30.624,32.494c0,1.727-1.401,3.126-3.126,3.126h-8.204c-1.726,0-3.127-1.399-3.127-3.126V24.29c0-1.726,1.4-3.126,3.127-3.126
			h8.204c1.725,0,3.126,1.4,3.126,3.126V32.494z"/>
		<g>
			
				<line fill="none" stroke="#000000" stroke-width="2" stroke-linecap="round" stroke-linejoin="round" stroke-miterlimit="10" x1="26.952" y1="26.622" x2="30.624" y2="26.622"/>
			
				<line fill="none" stroke="#000000" stroke-width="2" stroke-linecap="round" stroke-linejoin="round" stroke-miterlimit="10" x1="16.167" y1="26.622" x2="20.074" y2="26.622"/>
		</g>
		
			<circle fill="none" stroke="#000000" stroke-width="2" stroke-linecap="round" stroke-linejoin="round" stroke-miterlimit="10" cx="23.396" cy="28.393" r="3.439"/>
		
			<path id="path3002_2_" fill="none" stroke="#000000" stroke-width="2" stroke-linecap="round" stroke-linejoin="round" stroke-miterlimit="10" d="
			M7.813,23.874V15.96H5.185v-3.646h2.629v-2.78c0-2.912,1.81-4.727,4.654-4.727c1.714,0,2.414,0,2.414,0v3.422h-1.476
			c-1.224,0-1.797,0.431-1.797,1.727v2.358h3.252l-0.464,3.646h-2.788v7.914H7.813z"/>
	</g>
</g>
<g id="labels" display="none">
</g>
</svg>
